# xmcd
# 
# Track frame offsets:
#     150
#     27525
#     46250
#     60087
#     79647
#     107950
#     130850
#     153092
#     177600
#     192700
#     206637
#     234525
#     256807
#     280000
#     298612
# 
# Disc length: 4247
# 
# Revision: 1
# Processed by: cddbd v1.5.2PL0 Copyright (c) Steve Scherf et al.
# Submitted via: BonkEnc v1.0.15
# 
DISCID=d310950f
DTITLE=CHAR - ALL AROUND ME 〜CHAR PLAYS BALLAD
DYEAR=1999
DGENRE=R&B
TTITLE0=VOICES
TTITLE1=ALL AROUND ME
TTITLE2=I'M HERE FOR YOU
TTITLE3=KINDA BLUE
TTITLE4=OH BABY
TTITLE5=SO MUCH IN LOVE
TTITLE6=WITHOUT LOVE
TTITLE7=DAZED(DAZED BY LOVE)
TTITLE8=FUTURE CHILD
TTITLE9=DAYS WENT BY
TTITLE10=LOVERS WALK
TTITLE11=ROOM NO.7
TTITLE12=左胸の砂丘
TTITLE13=2918
TTITLE14=ENDLESS DREAM
EXTD=YEAR: 1999
EXTT0=
EXTT1=
EXTT2=
EXTT3=
EXTT4=
EXTT5=
EXTT6=
EXTT7=
EXTT8=
EXTT9=
EXTT10=
EXTT11=
EXTT12=
EXTT13=
EXTT14=
PLAYORDER=
